<svg width="81" height="64" viewBox="0 0 81 64" fill="none" xmlns="http://www.w3.org/2000/svg">
<g id="LO LGO">
<path d="M9.152 23.112H17.926V30H0.05V0.972H9.152V23.112ZM38.5842 43.894C38.2289 43.32 37.7232 42.8827 37.0672 42.582C36.4112 42.254 35.6186 42.09 34.6892 42.09C32.9399 42.09 31.5869 42.664 30.6302 43.812C29.6736 44.9327 29.1952 46.477 29.1952 48.445C29.1952 50.7137 29.7282 52.4083 30.7942 53.529C31.8602 54.6497 33.5002 55.21 35.7142 55.21C37.8189 55.21 39.5136 54.3627 40.7982 52.668H33.5412V46.231H48.3422V55.333C47.0849 57.4923 45.3492 59.351 43.1352 60.909C40.9212 62.4397 38.1196 63.205 34.7302 63.205C31.7236 63.205 29.0996 62.59 26.8582 61.36C24.6442 60.1027 22.9359 58.3533 21.7332 56.112C20.5579 53.8707 19.9702 51.315 19.9702 48.445C19.9702 45.575 20.5579 43.0193 21.7332 40.778C22.9359 38.5367 24.6442 36.801 26.8582 35.571C29.0722 34.3137 31.6689 33.685 34.6482 33.685C38.4476 33.685 41.5362 34.6007 43.9142 36.432C46.3196 38.2633 47.7409 40.7507 48.1782 43.894H38.5842Z" fill="#6E00FF"/>
<path d="M34.9352 30.287C32.2019 30.287 29.6872 29.6447 27.3912 28.36C25.1226 27.0753 23.3186 25.2987 21.9792 23.03C20.6399 20.7613 19.9702 18.2057 19.9702 15.363C19.9702 12.5203 20.6399 9.96467 21.9792 7.696C23.3186 5.42733 25.1226 3.66433 27.3912 2.407C29.6872 1.12233 32.2019 0.479999 34.9352 0.479999C37.6686 0.479999 40.1696 1.12233 42.4382 2.407C44.7069 3.66433 46.4972 5.42733 47.8092 7.696C49.1486 9.96467 49.8182 12.5203 49.8182 15.363C49.8182 18.2057 49.1486 20.7613 47.8092 23.03C46.4972 25.2987 44.6932 27.0753 42.3972 28.36C40.1286 29.6447 37.6412 30.287 34.9352 30.287ZM34.9352 21.8C36.7392 21.8 38.1332 21.226 39.1172 20.078C40.1012 18.9027 40.5932 17.331 40.5932 15.363C40.5932 13.3677 40.1012 11.796 39.1172 10.648C38.1332 9.47266 36.7392 8.885 34.9352 8.885C33.1039 8.885 31.6962 9.47266 30.7122 10.648C29.7282 11.796 29.2362 13.3677 29.2362 15.363C29.2362 17.331 29.7282 18.9027 30.7122 20.078C31.6962 21.226 33.1039 21.8 34.9352 21.8ZM65.7653 63.287C63.032 63.287 60.5173 62.6447 58.2213 61.36C55.9526 60.0753 54.1486 58.2987 52.8093 56.03C51.47 53.7613 50.8003 51.2057 50.8003 48.363C50.8003 45.5203 51.47 42.9647 52.8093 40.696C54.1486 38.4273 55.9526 36.6643 58.2213 35.407C60.5173 34.1223 63.032 33.48 65.7653 33.48C68.4986 33.48 70.9996 34.1223 73.2683 35.407C75.537 36.6643 77.3273 38.4273 78.6393 40.696C79.9786 42.9647 80.6483 45.5203 80.6483 48.363C80.6483 51.2057 79.9786 53.7613 78.6393 56.03C77.3273 58.2987 75.5233 60.0753 73.2273 61.36C70.9586 62.6447 68.4713 63.287 65.7653 63.287ZM65.7653 54.8C67.5693 54.8 68.9633 54.226 69.9473 53.078C70.9313 51.9027 71.4233 50.331 71.4233 48.363C71.4233 46.3677 70.9313 44.796 69.9473 43.648C68.9633 42.4727 67.5693 41.885 65.7653 41.885C63.934 41.885 62.5263 42.4727 61.5423 43.648C60.5583 44.796 60.0663 46.3677 60.0663 48.363C60.0663 50.331 60.5583 51.9027 61.5423 53.078C62.5263 54.226 63.934 54.8 65.7653 54.8Z" fill="#D7D7D7"/>
<path d="M9.152 56.112H17.926V63H0.05V33.972H9.152V56.112Z" fill="white"/>
</g>
</svg>
