<svg width="32" height="32" viewBox="0 0 32 32" fill="none" xmlns="http://www.w3.org/2000/svg">
<g id="dribble">
<g id="Group">
<path id="Vector" d="M29.3333 16C29.3356 17.7562 28.9898 19.4954 28.3159 21.1172C27.642 22.739 26.6535 24.2112 25.4073 25.4486C24.1713 26.6824 22.7044 27.6605 21.0902 28.3271C19.476 28.9936 17.7463 29.3356 16 29.3333C8.63597 29.3333 2.66664 23.364 2.66664 16C2.66198 12.5811 3.97522 9.29207 6.3333 6.81664C7.57753 5.5037 9.07658 4.45847 10.7387 3.74489C12.4009 3.03132 14.1911 2.66442 16 2.66664C17.7463 2.66438 19.476 3.00629 21.0902 3.67285C22.7044 4.3394 24.1713 5.31752 25.4073 6.5513C26.6535 7.78879 27.642 9.26095 28.3159 10.8827C28.9898 12.5045 29.3356 14.2438 29.3333 16V16Z" stroke="black" stroke-width="4" stroke-linecap="round" stroke-linejoin="round"/>
<path id="Vector_2" d="M29.3333 16C27.388 16 22.0213 15.2666 17.218 17.3753C12 19.6666 8.22198 23.2206 6.57532 25.4313" stroke="black" stroke-width="4" stroke-linecap="round" stroke-linejoin="round"/>
<path id="Vector_3" d="M11 3.63599C13.0867 5.56199 17.64 10.466 19.3333 15.3333C21.0267 20.2013 21.6533 26.1867 22.04 27.89" stroke="black" stroke-width="4" stroke-linecap="round" stroke-linejoin="round"/>
<path id="Vector_4" d="M2.76929 14.3333C5.28795 14.4853 11.9553 14.622 16.222 12.8C20.4886 10.978 24.16 7.62663 25.4193 6.56329" stroke="black" stroke-width="4" stroke-linecap="round" stroke-linejoin="round"/>
<path id="Vector_5" d="M3.66663 21.0753C4.8415 23.9192 6.96043 26.2715 9.66663 27.736" stroke="black" stroke-width="4" stroke-linecap="round" stroke-linejoin="round"/>
<path id="Vector_6" d="M2.66664 16C2.66198 12.5812 3.97522 9.29209 6.33331 6.81665" stroke="black" stroke-width="4" stroke-linecap="round" stroke-linejoin="round"/>
<path id="Vector_7" d="M16 2.66664C14.1911 2.66441 12.4009 3.03132 10.7387 3.74489C9.07659 4.45847 7.57754 5.5037 6.33331 6.81664" stroke="black" stroke-width="4" stroke-linecap="round" stroke-linejoin="round"/>
<path id="Vector_8" d="M21.3333 3.776C22.8517 4.44036 24.2332 5.38149 25.4073 6.55133C26.6535 7.78882 27.642 9.26098 28.3159 10.8828C28.9898 12.5045 29.3356 14.2438 29.3333 16C29.3333 17.642 29.0366 19.214 28.4933 20.6667" stroke="black" stroke-width="4" stroke-linecap="round" stroke-linejoin="round"/>
<path id="Vector_9" d="M16 29.3333C17.7464 29.3356 19.4761 28.9936 21.0902 28.3271C22.7044 27.6605 24.1714 26.6824 25.4073 25.4486" stroke="black" stroke-width="4" stroke-linecap="round" stroke-linejoin="round"/>
</g>
</g>
</svg>
