<svg width="32" height="32" viewBox="0 0 32 32" fill="none" xmlns="http://www.w3.org/2000/svg">
<path d="M9.308 6C10.23 6 11.082 6.07 11.864 6.28C12.644 6.42 13.286 6.712 13.856 7.062C14.428 7.414 14.85 7.914 15.138 8.556C15.418 9.196 15.57 9.978 15.57 10.83C15.57 11.822 15.358 12.674 14.858 13.314C14.428 13.954 13.726 14.526 12.864 14.948C14.076 15.3 14.998 15.94 15.56 16.792C16.122 17.644 16.482 18.706 16.482 19.918C16.482 20.91 16.272 21.762 15.912 22.474C15.5529 23.1907 15.014 23.8019 14.348 24.248C13.708 24.678 12.926 25.028 12.074 25.24C11.2394 25.4604 10.3811 25.5786 9.518 25.592L0 25.606V6H9.308ZM8.738 13.956C9.518 13.956 10.158 13.746 10.652 13.386C11.144 13.026 11.362 12.392 11.362 11.612C11.362 11.18 11.292 10.76 11.152 10.478C11.0005 10.1922 10.7806 9.94829 10.512 9.768C10.2219 9.6098 9.91174 9.4914 9.59 9.416C9.238 9.346 8.878 9.346 8.456 9.346H4.34V13.966C4.34 13.956 8.74 13.956 8.74 13.956H8.738ZM8.948 22.342C9.378 22.342 9.8 22.272 10.16 22.202C10.512 22.132 10.872 21.99 11.152 21.77C11.432 21.55 11.652 21.34 11.864 20.99C12.004 20.638 12.144 20.208 12.144 19.708C12.144 18.716 11.864 18.004 11.292 17.504C10.722 17.074 9.94 16.864 9.018 16.864H4.34V22.332H8.95V22.342H8.948ZM22.664 22.272C23.236 22.842 24.086 23.124 25.22 23.124C26 23.124 26.712 22.912 27.284 22.552C27.854 22.122 28.204 21.7 28.344 21.272H31.824C31.252 22.974 30.4 24.186 29.268 24.968C28.136 25.678 26.782 26.1 25.148 26.1C24.1031 26.1046 23.0669 25.9112 22.094 25.53C21.2184 25.2045 20.4372 24.6672 19.82 23.966C19.1617 23.3122 18.6729 22.5076 18.396 21.622C18.046 20.7 17.896 19.708 17.896 18.566C17.896 17.504 18.036 16.502 18.396 15.58C18.756 14.66 19.248 13.876 19.89 13.166C20.53 12.526 21.312 11.954 22.164 11.602C23.114 11.2238 24.1275 11.0303 25.15 11.032C26.362 11.032 27.424 11.242 28.346 11.742C29.266 12.242 29.98 12.806 30.55 13.658C31.12 14.438 31.542 15.36 31.832 16.354C31.972 17.346 32.042 18.346 31.972 19.48H21.672C21.672 20.64 22.092 21.7 22.664 22.272V22.272ZM27.144 14.808C26.644 14.308 25.86 14.026 24.938 14.026C24.298 14.026 23.806 14.166 23.376 14.378C22.946 14.588 22.664 14.878 22.384 15.158C22.1226 15.4325 21.9486 15.7785 21.884 16.152C21.812 16.502 21.744 16.792 21.744 17.072H28.136C27.996 16.02 27.636 15.308 27.142 14.808H27.144ZM20.89 7.352H28.846V9.266H20.89V7.352V7.352Z" fill="black"/>
</svg>
