<svg width="42" height="42" viewBox="0 0 42 42" fill="none" xmlns="http://www.w3.org/2000/svg">
<g id="twitter">
<path id="Vector" d="M15.645 32.7337C17.862 32.7477 20.0597 32.3213 22.1106 31.4793C24.1616 30.6373 26.0249 29.3965 27.5926 27.8288C29.1603 26.2611 30.4011 24.3978 31.2431 22.3469C32.0851 20.2959 32.5114 18.0982 32.4975 15.8812V15.1069C33.6467 14.2649 34.6414 13.2302 35.4375 12.0487C34.3554 12.522 33.2103 12.8359 32.0381 12.9806C33.2809 12.2401 34.2135 11.0744 34.6631 9.69935C33.5049 10.3942 32.2348 10.8828 30.9094 11.1431C30.0168 10.192 28.8356 9.56162 27.5487 9.34942C26.2617 9.13723 24.9407 9.35509 23.79 9.96928C22.6394 10.5835 21.7232 11.5598 21.1832 12.7471C20.6433 13.9344 20.5097 15.2666 20.8031 16.5375C18.4485 16.4219 16.1447 15.8117 14.0416 14.7466C11.9385 13.6815 10.0833 12.1853 8.59688 10.3556C7.84734 11.6565 7.62015 13.1937 7.96131 14.6558C8.30247 16.1179 9.18649 17.3958 10.4344 18.2306C9.5138 18.1951 8.61453 17.9433 7.80937 17.4956V17.5612C7.80119 18.9208 8.2592 20.242 9.10705 21.3048C9.9549 22.3676 11.1414 23.1078 12.4688 23.4019C11.6125 23.6321 10.7156 23.668 9.84375 23.5069C10.228 24.6663 10.9616 25.6785 11.9438 26.4046C12.926 27.1307 14.1088 27.5351 15.33 27.5625C13.2421 29.2432 10.6471 30.1683 7.96688 30.1875C7.49694 30.1739 7.02811 30.1344 6.5625 30.0694C9.27538 31.7978 12.4283 32.709 15.645 32.6944" fill="black"/>
</g>
</svg>
