<svg width="40" height="40" viewBox="0 0 40 40" fill="none" xmlns="http://www.w3.org/2000/svg">
<g id="behance">
<g id="Group">
<path id="Vector" d="M29.4483 30.4467C28.3668 30.4601 27.2925 30.2696 26.2816 29.885C25.376 29.5328 24.5576 28.9881 23.8833 28.2884C23.219 27.5734 22.706 26.7315 22.375 25.8134C22.0115 24.7977 21.8315 23.7254 21.8433 22.6467C21.8356 21.5866 22.0208 20.5339 22.39 19.54C22.7341 18.6133 23.2638 17.7666 23.9466 17.0517C24.6314 16.3457 25.4494 15.7826 26.3533 15.395C27.3324 14.9808 28.387 14.7748 29.45 14.79C30.5924 14.7656 31.7239 15.0172 32.7483 15.5234C33.6627 15.9924 34.4558 16.6673 35.065 17.495C35.68 18.34 36.1233 19.2984 36.37 20.3134C36.64 21.3934 36.7366 22.5084 36.655 23.6184H25.9366C25.8933 24.6734 26.255 25.7017 26.9466 26.5C27.6729 27.1371 28.6226 27.4597 29.5866 27.3967C30.3433 27.4134 31.0866 27.1967 31.7166 26.775C32.2166 26.47 32.6 26.0084 32.805 25.46H36.3966C35.9896 27.0079 35.0531 28.3642 33.75 29.2934C32.4601 30.0911 30.9643 30.4922 29.4483 30.4467V30.4467ZM29.3333 17.8734C28.7733 17.8524 28.2164 17.9667 27.71 18.2067C27.3133 18.4067 26.9616 18.685 26.6766 19.0234C26.4266 19.3317 26.2383 19.6884 26.13 20.07C26.0338 20.3886 25.9717 20.7166 25.945 21.0484H32.5816C32.5338 20.1841 32.2042 19.3593 31.6433 18.7C31.3363 18.4102 30.9725 18.187 30.5749 18.0448C30.1773 17.9025 29.7546 17.8441 29.3333 17.8734V17.8734ZM13.2833 30.06H3.33331V9.5517H13C13.8955 9.54386 14.7893 9.63045 15.6666 9.81003C16.41 9.95503 17.1166 10.2434 17.7516 10.6567C18.325 11.0534 18.785 11.5934 19.085 12.2217C19.4183 12.9784 19.5766 13.8 19.5516 14.6267C19.5879 15.541 19.3455 16.4448 18.8566 17.2184C18.3233 17.9567 17.5983 18.5384 16.7633 18.9034C17.8983 19.1867 18.8966 19.865 19.58 20.815C20.2133 21.7934 20.535 22.9417 20.5 24.1067C20.5242 25.0387 20.3193 25.9624 19.9033 26.7967C19.52 27.5367 18.9633 28.1734 18.28 28.6517C17.5723 29.1441 16.782 29.5054 15.9466 29.7184C15.0746 29.9474 14.1766 30.0628 13.275 30.0617L13.2833 30.06V30.06ZM7.84998 20.9217V26.5717H12.6666C13.0916 26.5767 13.5166 26.5334 13.9333 26.4434C14.315 26.37 14.6766 26.2217 15 26.0067C15.3112 25.802 15.5639 25.5201 15.7333 25.1884C15.93 24.7717 16.0216 24.315 16.0033 23.855C16.0431 23.4344 15.9833 23.0103 15.8287 22.617C15.6741 22.2238 15.429 21.8726 15.1133 21.5917C14.4225 21.1162 13.5942 20.8818 12.7566 20.925L7.84998 20.9217V20.9217ZM7.84998 13.0467V17.8384H12.42C13.1266 17.8667 13.8233 17.665 14.4066 17.2634C14.6773 17.0386 14.8891 16.7514 15.0238 16.4264C15.1586 16.1015 15.2122 15.7487 15.18 15.3984C15.1941 14.9902 15.107 14.5848 14.9266 14.2184C14.7637 13.9221 14.5235 13.6756 14.2316 13.505C13.9243 13.3228 13.5848 13.2011 13.2316 13.1467C12.847 13.0746 12.4563 13.0405 12.065 13.045L7.84998 13.0467V13.0467ZM33.4183 12.9534H25.1016V10.9284H33.4183V12.9534V12.9534Z" fill="black"/>
</g>
</g>
</svg>
