<svg width="242" height="33" viewBox="0 0 242 33" fill="none" xmlns="http://www.w3.org/2000/svg">
<g id="&#60;div class=&#226;&#128;&#157;">
<path d="M8.14 26.969L0.223 18.35L8.14 9.731H16.525L8.569 18.35L16.525 26.969H8.14ZM20.5725 21.08C20.5725 18.844 20.9885 16.881 21.8205 15.191C22.6785 13.501 23.8355 12.201 25.2915 11.291C26.7475 10.381 28.3725 9.926 30.1665 9.926C31.5965 9.926 32.8965 10.225 34.0665 10.823C35.2625 11.421 36.1985 12.227 36.8745 13.241V3.14H43.5435V32H36.8745V28.88C36.2505 29.92 35.3535 30.752 34.1835 31.376C33.0395 32 31.7005 32.312 30.1665 32.312C28.3725 32.312 26.7475 31.857 25.2915 30.947C23.8355 30.011 22.6785 28.698 21.8205 27.008C20.9885 25.292 20.5725 23.316 20.5725 21.08ZM36.8745 21.119C36.8745 19.455 36.4065 18.142 35.4705 17.18C34.5605 16.218 33.4425 15.737 32.1165 15.737C30.7905 15.737 29.6595 16.218 28.7235 17.18C27.8135 18.116 27.3585 19.416 27.3585 21.08C27.3585 22.744 27.8135 24.07 28.7235 25.058C29.6595 26.02 30.7905 26.501 32.1165 26.501C33.4425 26.501 34.5605 26.02 35.4705 25.058C36.4065 24.096 36.8745 22.783 36.8745 21.119ZM51.7222 7.976C50.5522 7.976 49.5902 7.638 48.8362 6.962C48.1082 6.26 47.7442 5.402 47.7442 4.388C47.7442 3.348 48.1082 2.49 48.8362 1.814C49.5902 1.112 50.5522 0.760998 51.7222 0.760998C52.8662 0.760998 53.8022 1.112 54.5302 1.814C55.2842 2.49 55.6612 3.348 55.6612 4.388C55.6612 5.402 55.2842 6.26 54.5302 6.962C53.8022 7.638 52.8662 7.976 51.7222 7.976ZM55.0372 10.238V32H48.3682V10.238H55.0372ZM69.6591 25.76L74.3781 10.238H81.4762L73.7541 32H65.5251L57.8031 10.238H64.9401L69.6591 25.76Z" fill="#6E00FF"/>
<path d="M91.2219 21.119C91.2219 18.857 91.6769 16.881 92.5869 15.191C93.5229 13.501 94.8099 12.201 96.4479 11.291C98.1119 10.381 100.01 9.926 102.142 9.926C104.872 9.926 107.147 10.641 108.967 12.071C110.813 13.501 112.022 15.516 112.594 18.116H105.496C104.898 16.452 103.741 15.62 102.025 15.62C100.803 15.62 99.8279 16.101 99.0999 17.063C98.3719 17.999 98.0079 19.351 98.0079 21.119C98.0079 22.887 98.3719 24.252 99.0999 25.214C99.8279 26.15 100.803 26.618 102.025 26.618C103.741 26.618 104.898 25.786 105.496 24.122H112.594C112.022 26.67 110.813 28.672 108.967 30.128C107.121 31.584 104.846 32.312 102.142 32.312C100.01 32.312 98.1119 31.857 96.4479 30.947C94.8099 30.037 93.5229 28.737 92.5869 27.047C91.6769 25.357 91.2219 23.381 91.2219 21.119ZM122.83 3.14V32H116.161V3.14H122.83ZM126.337 21.08C126.337 18.844 126.753 16.881 127.585 15.191C128.443 13.501 129.6 12.201 131.056 11.291C132.512 10.381 134.137 9.926 135.931 9.926C137.465 9.926 138.804 10.238 139.948 10.862C141.118 11.486 142.015 12.305 142.639 13.319V10.238H149.308V32H142.639V28.919C141.989 29.933 141.079 30.752 139.909 31.376C138.765 32 137.426 32.312 135.892 32.312C134.124 32.312 132.512 31.857 131.056 30.947C129.6 30.011 128.443 28.698 127.585 27.008C126.753 25.292 126.337 23.316 126.337 21.08ZM142.639 21.119C142.639 19.455 142.171 18.142 141.235 17.18C140.325 16.218 139.207 15.737 137.881 15.737C136.555 15.737 135.424 16.218 134.488 17.18C133.578 18.116 133.123 19.416 133.123 21.08C133.123 22.744 133.578 24.07 134.488 25.058C135.424 26.02 136.555 26.501 137.881 26.501C139.207 26.501 140.325 26.02 141.235 25.058C142.171 24.096 142.639 22.783 142.639 21.119ZM162.986 32.312C161.088 32.312 159.398 31.987 157.916 31.337C156.434 30.687 155.264 29.803 154.406 28.685C153.548 27.541 153.067 26.267 152.963 24.863H159.554C159.632 25.617 159.983 26.228 160.607 26.696C161.231 27.164 161.998 27.398 162.908 27.398C163.74 27.398 164.377 27.242 164.819 26.93C165.287 26.592 165.521 26.163 165.521 25.643C165.521 25.019 165.196 24.564 164.546 24.278C163.896 23.966 162.843 23.628 161.387 23.264C159.827 22.9 158.527 22.523 157.487 22.133C156.447 21.717 155.55 21.08 154.796 20.222C154.042 19.338 153.665 18.155 153.665 16.673C153.665 15.425 154.003 14.294 154.679 13.28C155.381 12.24 156.395 11.421 157.721 10.823C159.073 10.225 160.672 9.926 162.518 9.926C165.248 9.926 167.393 10.602 168.953 11.954C170.539 13.306 171.449 15.1 171.683 17.336H165.521C165.417 16.582 165.079 15.984 164.507 15.542C163.961 15.1 163.233 14.879 162.323 14.879C161.543 14.879 160.945 15.035 160.529 15.347C160.113 15.633 159.905 16.036 159.905 16.556C159.905 17.18 160.23 17.648 160.88 17.96C161.556 18.272 162.596 18.584 164 18.896C165.612 19.312 166.925 19.728 167.939 20.144C168.953 20.534 169.837 21.184 170.591 22.094C171.371 22.978 171.774 24.174 171.8 25.682C171.8 26.956 171.436 28.1 170.708 29.114C170.006 30.102 168.979 30.882 167.627 31.454C166.301 32.026 164.754 32.312 162.986 32.312ZM184.733 32.312C182.835 32.312 181.145 31.987 179.663 31.337C178.181 30.687 177.011 29.803 176.153 28.685C175.295 27.541 174.814 26.267 174.71 24.863H181.301C181.379 25.617 181.73 26.228 182.354 26.696C182.978 27.164 183.745 27.398 184.655 27.398C185.487 27.398 186.124 27.242 186.566 26.93C187.034 26.592 187.268 26.163 187.268 25.643C187.268 25.019 186.943 24.564 186.293 24.278C185.643 23.966 184.59 23.628 183.134 23.264C181.574 22.9 180.274 22.523 179.234 22.133C178.194 21.717 177.297 21.08 176.543 20.222C175.789 19.338 175.412 18.155 175.412 16.673C175.412 15.425 175.75 14.294 176.426 13.28C177.128 12.24 178.142 11.421 179.468 10.823C180.82 10.225 182.419 9.926 184.265 9.926C186.995 9.926 189.14 10.602 190.7 11.954C192.286 13.306 193.196 15.1 193.43 17.336H187.268C187.164 16.582 186.826 15.984 186.254 15.542C185.708 15.1 184.98 14.879 184.07 14.879C183.29 14.879 182.692 15.035 182.276 15.347C181.86 15.633 181.652 16.036 181.652 16.556C181.652 17.18 181.977 17.648 182.627 17.96C183.303 18.272 184.343 18.584 185.747 18.896C187.359 19.312 188.672 19.728 189.686 20.144C190.7 20.534 191.584 21.184 192.338 22.094C193.118 22.978 193.521 24.174 193.547 25.682C193.547 26.956 193.183 28.1 192.455 29.114C191.753 30.102 190.726 30.882 189.374 31.454C188.048 32.026 186.501 32.312 184.733 32.312ZM219.701 10.433V16.322H197.861V10.433H219.701ZM219.701 20.378V26.267H197.861V20.378H219.701ZM226.303 4.622H233.128L228.76 15.074H224.275L226.303 4.622ZM235.156 4.622H241.981L237.613 15.074H233.128L235.156 4.622Z" fill="#D7D7D7"/>
</g>
</svg>
